<svg version="1.1" id="Layer_1" xmlns="http://www.w3.org/2000/svg" xmlns:xlink="http://www.w3.org/1999/xlink" x="0px" y="0px"
	 width="100%" viewBox="0 0 100 100" enable-background="new 0 0 100 100" xml:space="preserve">
<path fill="#040404" opacity="1.000000" stroke="none" 
	d="
M1.000000,93.000000 
	C1.000000,64.979103 1.000000,36.958210 1.468643,8.464735 
	C34.958191,7.994770 67.979095,7.997385 101.000000,8.000000 
	C101.000000,36.020893 101.000000,64.041786 100.531357,92.535263 
	C67.041809,93.005234 34.020905,93.002617 1.000000,93.000000 
M41.828869,20.376707 
	C41.281521,20.420483 40.734173,20.464260 40.186825,20.508036 
	C40.428703,21.061243 40.670586,21.614449 40.979427,22.659782 
	C41.062984,23.016428 41.279305,23.250257 41.619678,24.116505 
	C42.774849,27.692225 43.930019,31.267944 45.085190,34.843666 
	C44.790653,35.010326 44.496117,35.176991 44.201584,35.343651 
	C42.498405,33.529816 40.795227,31.715979 38.924538,29.321199 
	C38.654957,29.294069 38.385376,29.266937 38.115795,29.239807 
	C38.188957,29.656998 38.262115,30.074190 38.642475,31.157616 
	C40.427628,35.783695 42.212780,40.409771 43.294556,45.035732 
	C38.131542,40.419018 34.319630,34.221333 27.303371,31.672844 
	C30.187496,35.964050 33.071621,40.255253 35.955746,44.546459 
	C35.723114,44.850418 35.490482,45.154377 35.257851,45.458336 
	C30.943947,43.684799 26.630041,41.911266 22.316137,40.137730 
	C22.127974,40.561905 21.939812,40.986084 21.751648,41.410259 
	C31.424028,49.111408 41.877060,55.459999 53.363140,59.847015 
	C50.976929,56.048851 48.708385,52.437977 47.628567,49.089306 
	C49.446667,48.886551 51.264763,48.683792 53.029461,48.431210 
	C53.029461,48.431210 53.067085,48.599400 52.910454,49.338436 
	C53.844479,50.021606 54.778503,50.704777 55.709457,51.978237 
	C56.106022,52.344440 56.502590,52.710644 57.080940,53.625488 
	C57.306488,53.386539 57.532040,53.147591 57.737595,52.193287 
	C57.601166,51.493584 57.464741,50.793880 57.868114,49.803867 
	C57.931015,49.609486 57.993919,49.415104 58.892353,49.024353 
	C59.526272,51.208981 60.160187,53.393604 60.804611,55.614429 
	C72.458397,56.624264 76.655464,46.916245 83.145195,40.390530 
	C81.269890,40.959393 79.394585,41.528259 77.259056,42.176060 
	C80.066071,37.035172 82.590271,32.412228 85.114471,27.789288 
	C84.631584,27.413744 84.148689,27.038200 83.665802,26.662657 
	C82.808014,28.228666 81.950233,29.794674 80.892494,31.725727 
	C80.017601,29.862635 79.635605,29.049166 79.345459,28.431307 
	C77.495972,30.791439 75.755562,33.012379 73.365921,34.986916 
	C72.921417,34.298286 72.476913,33.609653 71.938545,32.463181 
	C71.938545,32.463181 71.807220,32.014645 72.049492,31.347616 
	C71.916313,30.950085 71.783142,30.552553 71.649963,30.155022 
	C71.405159,30.758442 71.160355,31.361864 70.217331,31.986275 
	C69.483681,32.990196 68.750023,33.994114 67.710556,35.563076 
	C67.193504,36.713226 66.676460,37.863373 65.719101,39.505901 
	C65.134026,39.718021 64.548943,39.930141 64.066208,39.194443 
	C64.074715,37.620636 64.083229,36.046833 64.879601,34.377460 
	C64.906708,32.583790 64.933807,30.790121 65.500076,28.410902 
	C66.014778,24.439009 66.529480,20.467117 67.044189,16.495224 
	C66.506477,16.419170 65.968765,16.343117 65.431053,16.267063 
	C64.553001,20.115839 63.674950,23.964615 62.218132,28.263609 
	C61.904667,28.779139 61.591202,29.294668 61.277733,29.810196 
	C60.488976,28.584061 59.700214,27.357927 58.911457,26.131792 
	C58.537571,26.136263 58.163689,26.140734 57.789806,26.145205 
	C57.527954,29.385183 57.266102,32.625164 56.132324,36.138390 
	C55.149860,34.625332 54.167397,33.112270 52.907890,31.172544 
	C52.907890,35.028610 52.907890,38.460281 52.313469,41.987186 
	C51.912277,41.978260 51.511082,41.969337 51.030926,41.233501 
	C50.585724,40.147030 50.140526,39.060555 49.742542,37.252430 
	C47.362202,32.233177 44.981857,27.213926 42.416672,21.778809 
	C42.263058,21.516485 42.091534,21.266455 41.828869,20.376707 
M8.875694,53.796013 
	C9.621432,56.543648 10.367170,59.291286 11.211631,62.831833 
	C17.557531,77.891716 28.436138,87.213570 45.811653,89.762230 
	C53.397495,90.436096 60.931625,90.801193 68.174736,86.566116 
	C60.050751,86.047325 52.516510,85.566193 44.342094,84.755501 
	C30.335609,80.141510 21.041830,70.695404 15.891435,56.189541 
	C12.132586,42.624119 14.822195,30.290100 22.936178,18.960827 
	C23.841255,17.697100 24.477135,16.240574 25.073324,15.054024 
	C25.073324,15.054024 25.119228,14.858850 25.119228,14.858850 
	C25.119228,14.858850 25.146002,15.024120 24.519190,15.326997 
	C13.638438,21.750254 6.713390,38.522270 8.875694,53.796013 
M76.216194,60.857517 
	C71.338768,61.572689 66.446548,62.962696 61.587147,62.856110 
	C52.722897,62.661678 43.870895,61.658138 35.028034,60.838409 
	C30.144396,60.385700 25.289698,59.620850 20.421953,58.996712 
	C20.386559,59.518757 20.351164,60.040802 20.315769,60.562847 
	C43.924717,67.979561 67.708900,65.973854 91.528107,62.085285 
	C91.540428,61.651230 91.552750,61.217175 91.565071,60.783119 
	C86.759285,60.783119 81.953491,60.783119 76.216194,60.857517 
z"/>
<path fill="#FFFFFF" opacity="1.000000" stroke="none" 
	d="
M1.000000,93.494736 
	C34.020905,93.002617 67.041809,93.005234 100.531357,93.003922 
	C101.000000,95.655365 101.000000,98.310730 101.000000,100.972992 
	C67.666664,100.979889 34.333332,100.979889 1.000000,100.979889 
	C1.000000,98.636345 1.000000,96.312904 1.000000,93.494736 
z"/>
<path fill="#FFFFFF" opacity="1.000000" stroke="none" 
	d="
M101.000000,7.502095 
	C67.979095,7.997385 34.958191,7.994770 1.468643,7.996078 
	C1.000000,5.676860 1.000000,3.353719 1.000000,1.015290 
	C34.333332,1.015290 67.666664,1.015290 101.000000,1.015290 
	C101.000000,3.021660 101.000000,5.012925 101.000000,7.502095 
z"/>
<path fill="#EBEBEC" opacity="1.000000" stroke="none" 
	d="
M63.963867,40.142262 
	C64.548943,39.930141 65.134026,39.718021 66.300186,39.251762 
	C67.861671,38.279015 68.842072,37.560410 69.822472,36.841805 
	C69.220436,36.227219 68.618401,35.612625 68.016365,34.998032 
	C68.750023,33.994114 69.483681,32.990196 70.788589,32.002060 
	C71.359848,32.017841 71.807220,32.014645 71.807220,32.014645 
	C71.807220,32.014645 71.938545,32.463181 71.944138,33.032410 
	C71.881531,35.119934 71.813332,36.638229 71.745132,38.156525 
	C72.108139,38.195633 72.471146,38.234741 72.834152,38.273849 
	C73.227821,37.260338 73.621483,36.246830 74.015152,35.233322 
	C75.755562,33.012379 77.495972,30.791439 79.345459,28.431307 
	C79.635605,29.049166 80.017601,29.862635 80.892494,31.725727 
	C81.950233,29.794674 82.808014,28.228666 83.665802,26.662657 
	C84.148689,27.038200 84.631584,27.413744 85.114471,27.789288 
	C82.590271,32.412228 80.066071,37.035172 77.259056,42.176060 
	C79.394585,41.528259 81.269890,40.959393 83.145195,40.390530 
	C76.655464,46.916245 72.458397,56.624264 60.804611,55.614429 
	C60.160187,53.393604 59.526272,51.208981 58.409351,48.744202 
	C57.895290,48.209995 57.864227,47.955936 57.880512,47.488670 
	C58.195026,46.945686 58.462185,46.615913 59.099552,46.372940 
	C60.967793,44.353916 62.465828,42.248089 63.963867,40.142262 
M62.322990,50.130932 
	C62.010849,50.831249 61.698704,51.531567 61.386562,52.231884 
	C61.764854,52.370415 62.143147,52.508945 62.521439,52.647472 
	C62.676571,51.762009 62.831707,50.876545 63.223061,49.885426 
	C63.223061,49.885426 63.260151,49.589680 63.260151,49.589680 
	C63.260151,49.589680 63.008392,50.013374 62.322990,50.130932 
z"/>
<path fill="#F3F4F4" opacity="1.000000" stroke="none" 
	d="
M44.910362,89.451813 
	C28.436138,87.213570 17.557531,77.891716 11.480634,62.480537 
	C18.448849,63.964855 14.202845,58.896008 15.211204,57.001568 
	C15.436775,57.003716 15.887938,57.004509 15.887938,57.004509 
	C21.041830,70.695404 30.335609,80.141510 44.646988,85.194138 
	C44.104504,86.062271 43.257122,86.491760 42.545448,86.852470 
	C43.344437,87.730667 44.127399,88.591240 44.910362,89.451813 
z"/>
<path fill="#EBECEC" opacity="1.000000" stroke="none" 
	d="
M46.439838,48.827103 
	C48.708385,52.437977 50.976929,56.048851 53.363140,59.847015 
	C41.877060,55.459999 31.424028,49.111408 21.751648,41.410259 
	C21.939812,40.986084 22.127974,40.561905 22.316137,40.137730 
	C26.630041,41.911266 30.943947,43.684799 35.257851,45.458336 
	C35.490482,45.154377 35.723114,44.850418 35.955746,44.546459 
	C33.071621,40.255253 30.187496,35.964050 27.303371,31.672844 
	C34.319630,34.221333 38.131542,40.419018 43.643860,44.997604 
	C43.993168,44.959480 43.917168,44.970230 43.936020,45.270485 
	C44.296734,45.696369 44.638596,45.821999 44.983856,46.199070 
	C45.471451,47.242706 45.955647,48.034904 46.439838,48.827103 
M36.452286,45.014496 
	C36.370197,45.248260 36.288105,45.482025 36.206017,45.715794 
	C36.433685,45.643604 36.661350,45.571419 36.452286,45.014496 
z"/>
<path fill="#DCDDDD" opacity="1.000000" stroke="none" 
	d="
M76.681946,60.820320 
	C81.953491,60.783119 86.759285,60.783119 91.565071,60.783119 
	C91.552750,61.217175 91.540428,61.651230 91.528107,62.085285 
	C67.708900,65.973854 43.924717,67.979561 20.315769,60.562847 
	C20.351164,60.040802 20.386559,59.518757 20.421953,58.996712 
	C25.289698,59.620850 30.144396,60.385700 35.028034,60.838409 
	C43.870895,61.658138 52.722897,62.661678 61.587147,62.856110 
	C66.446548,62.962696 71.338768,61.572689 76.681946,60.820320 
z"/>
<path fill="#ECEDED" opacity="1.000000" stroke="none" 
	d="
M15.889687,56.597023 
	C15.887938,57.004509 15.436775,57.003716 14.944429,56.790543 
	C13.555511,54.555439 12.658937,52.533516 11.611729,50.171879 
	C10.457711,51.409363 9.706981,52.214394 8.956251,53.019424 
	C6.713390,38.522270 13.638438,21.750254 24.848984,15.133884 
	C25.178780,14.940773 25.237856,14.873458 25.237856,14.873458 
	C24.477135,16.240574 23.841255,17.697100 22.936178,18.960827 
	C14.822195,30.290100 12.132586,42.624119 15.889687,56.597023 
z"/>
<path fill="#E1E2E3" opacity="1.000000" stroke="none" 
	d="
M47.034203,48.958206 
	C45.955647,48.034904 45.471451,47.242706 44.933456,45.867901 
	C44.558823,45.180271 44.237995,45.075253 43.917168,44.970230 
	C43.917168,44.970230 43.993168,44.959480 43.995548,44.997665 
	C42.212780,40.409771 40.427628,35.783695 38.688004,30.689953 
	C38.733536,30.222290 39.092049,29.902145 39.092049,29.902145 
	C40.795227,31.715979 42.498405,33.529816 44.201584,35.343651 
	C44.496117,35.176991 44.790653,35.010326 45.085190,34.843666 
	C43.930019,31.267944 42.774849,27.692225 41.875809,23.454323 
	C42.288467,22.592985 42.444992,22.393829 42.601517,22.194675 
	C44.981857,27.213926 47.362202,32.233177 49.362549,37.708294 
	C47.506203,40.686016 46.889885,43.101933 50.055286,45.403713 
	C51.211758,46.645813 52.147312,47.563423 53.082863,48.481033 
	C51.264763,48.683792 49.446667,48.886551 47.034203,48.958206 
z"/>
<path fill="#D0D1D3" opacity="1.000000" stroke="none" 
	d="
M45.361008,89.607025 
	C44.127399,88.591240 43.344437,87.730667 42.545448,86.852470 
	C43.257122,86.491760 44.104504,86.062271 44.967075,85.358917 
	C52.516510,85.566193 60.050751,86.047325 68.174736,86.566116 
	C60.931625,90.801193 53.397495,90.436096 45.361008,89.607025 
z"/>
<path fill="#999CA2" opacity="1.000000" stroke="none" 
	d="
M64.960907,28.996452 
	C64.933807,30.790121 64.906708,32.583790 64.265427,34.699177 
	C63.285709,36.046921 62.920166,37.072948 62.586441,38.009666 
	C61.664051,37.674404 60.764317,37.347374 59.483143,37.029816 
	C58.397800,36.848221 57.693897,36.657154 56.935314,36.356876 
	C56.880630,36.247665 57.004250,35.865143 57.004250,35.865143 
	C57.266102,32.625164 57.527954,29.385183 57.789806,26.145205 
	C58.163689,26.140734 58.537571,26.136263 58.911457,26.131792 
	C59.700214,27.357927 60.488976,28.584061 61.277733,29.810196 
	C61.591202,29.294668 61.904667,28.779139 62.801189,28.139114 
	C63.909801,28.341898 64.435356,28.669174 64.960907,28.996452 
z"/>
<path fill="#D9DBDE" opacity="1.000000" stroke="none" 
	d="
M8.915973,53.407719 
	C9.706981,52.214394 10.457711,51.409363 11.611729,50.171879 
	C12.658937,52.533516 13.555511,54.555439 14.718857,56.788391 
	C14.202845,58.896008 18.448849,63.964855 11.431273,62.084084 
	C10.367170,59.291286 9.621432,56.543648 8.915973,53.407719 
z"/>
<path fill="#666A71" opacity="1.000000" stroke="none" 
	d="
M65.230499,28.703678 
	C64.435356,28.669174 63.909801,28.341898 63.090572,27.914005 
	C63.674950,23.964615 64.553001,20.115839 65.431053,16.267063 
	C65.968765,16.343117 66.506477,16.419170 67.044189,16.495224 
	C66.529480,20.467117 66.014778,24.439009 65.230499,28.703678 
z"/>
<path fill="#DBDCE0" opacity="1.000000" stroke="none" 
	d="
M59.864582,37.020344 
	C60.764317,37.347374 61.664051,37.674404 62.586441,38.009666 
	C62.920166,37.072948 63.285709,36.046921 63.871498,34.746960 
	C64.083229,36.046833 64.074715,37.620636 64.015038,39.668350 
	C62.465828,42.248089 60.967793,44.353916 59.194801,45.971901 
	C59.234760,42.662819 59.549671,39.841583 59.864582,37.020344 
z"/>
<path fill="#C9CACF" opacity="1.000000" stroke="none" 
	d="
M57.833160,47.701874 
	C57.864227,47.955936 57.895290,48.209995 57.991585,48.842392 
	C57.993919,49.415104 57.931015,49.609486 57.337456,50.029823 
	C56.442039,50.633163 56.077282,51.010555 55.712528,51.387947 
	C54.778503,50.704777 53.844479,50.021606 53.220718,48.706787 
	C53.361904,47.421440 53.192829,46.767750 53.339882,45.935432 
	C54.106297,44.197956 54.556583,42.639107 55.017738,41.059662 
	C55.028610,41.039070 54.982990,41.029720 55.345680,41.188271 
	C56.416634,43.465172 57.124897,45.583523 57.833160,47.701874 
z"/>
<path fill="#A7AAB1" opacity="1.000000" stroke="none" 
	d="
M56.568287,36.001766 
	C57.004250,35.865143 56.880630,36.247665 56.785072,36.309692 
	C56.689510,36.371723 56.426224,36.544880 56.054642,36.335876 
	C55.184059,36.740860 54.685066,37.354855 54.199165,38.297245 
	C54.469173,39.427002 54.726082,40.228359 54.982990,41.029720 
	C54.982990,41.029720 55.028610,41.039070 54.756256,41.145500 
	C54.002232,41.517773 53.520565,41.783611 52.999779,42.015369 
	C52.960659,41.981293 52.907890,41.891949 52.907890,41.891949 
	C52.907890,38.460281 52.907890,35.028610 52.907890,31.172544 
	C54.167397,33.112270 55.149860,34.625332 56.568287,36.001766 
z"/>
<path fill="#CCCED3" opacity="1.000000" stroke="none" 
	d="
M49.834366,45.079224 
	C46.889885,43.101933 47.506203,40.686016 49.338940,38.069122 
	C50.140526,39.060555 50.585724,40.147030 50.786804,41.804214 
	C50.306580,43.276356 50.070473,44.177792 49.834366,45.079224 
z"/>
<path fill="#AEAFB4" opacity="1.000000" stroke="none" 
	d="
M50.055286,45.403713 
	C50.070473,44.177792 50.306580,43.276356 50.826286,42.167671 
	C51.511082,41.969337 51.912277,41.978260 52.610680,41.939568 
	C52.907890,41.891949 52.960659,41.981293 52.985119,42.419716 
	C53.014301,43.943443 53.019028,45.028748 53.023754,46.114056 
	C53.192829,46.767750 53.361904,47.421440 53.299034,48.337265 
	C53.067085,48.599400 53.029461,48.431210 53.056164,48.456123 
	C52.147312,47.563423 51.211758,46.645813 50.055286,45.403713 
z"/>
<path fill="#DBDCE0" opacity="1.000000" stroke="none" 
	d="
M67.863464,35.280556 
	C68.618401,35.612625 69.220436,36.227219 69.822472,36.841805 
	C68.842072,37.560410 67.861671,38.279015 66.520340,39.005569 
	C66.676460,37.863373 67.193504,36.713226 67.863464,35.280556 
z"/>
<path fill="#DBDCE0" opacity="1.000000" stroke="none" 
	d="
M73.690536,35.110115 
	C73.621483,36.246830 73.227821,37.260338 72.834152,38.273849 
	C72.471146,38.234741 72.108139,38.195633 71.745132,38.156525 
	C71.813332,36.638229 71.881531,35.119934 71.991074,33.261330 
	C72.476913,33.609653 72.921417,34.298286 73.690536,35.110115 
z"/>
<path fill="#F3F4F6" opacity="1.000000" stroke="none" 
	d="
M55.710991,51.683090 
	C56.077282,51.010555 56.442039,50.633163 57.067554,50.174976 
	C57.464741,50.793880 57.601166,51.493584 57.521557,52.534698 
	C57.305519,52.876106 56.899155,53.076847 56.899155,53.076847 
	C56.502590,52.710644 56.106022,52.344440 55.710991,51.683090 
z"/>
<path fill="#C4C6CA" opacity="1.000000" stroke="none" 
	d="
M40.912468,22.167654 
	C40.670586,21.614449 40.428703,21.061243 40.186825,20.508038 
	C40.734173,20.464260 41.281521,20.420483 41.640411,20.831284 
	C41.272121,21.579792 41.092293,21.873722 40.912468,22.167654 
z"/>
<path fill="#DBDCE0" opacity="1.000000" stroke="none" 
	d="
M71.928360,31.681129 
	C71.807220,32.014645 71.359848,32.017841 71.137695,31.991562 
	C71.160355,31.361864 71.405159,30.758442 71.649963,30.155022 
	C71.783142,30.552553 71.916313,30.950085 71.928360,31.681129 
z"/>
<path fill="#E1E2E3" opacity="1.000000" stroke="none" 
	d="
M40.945946,22.413719 
	C41.092293,21.873722 41.272121,21.579792 41.677021,21.157288 
	C42.091534,21.266455 42.263058,21.516485 42.509094,21.986742 
	C42.444992,22.393829 42.288467,22.592985 41.880165,23.076706 
	C41.279305,23.250257 41.062984,23.016428 40.945946,22.413719 
z"/>
<path fill="#ACADAD" opacity="1.000000" stroke="none" 
	d="
M56.990047,53.351166 
	C56.899155,53.076847 57.305519,52.876106 57.531555,52.892372 
	C57.532040,53.147591 57.306488,53.386539 56.990047,53.351166 
z"/>
<path fill="#E1E2E3" opacity="1.000000" stroke="none" 
	d="
M38.534405,30.356836 
	C38.262115,30.074190 38.188957,29.656998 38.115795,29.239807 
	C38.385376,29.266937 38.654957,29.294069 39.008293,29.611671 
	C39.092049,29.902145 38.733536,30.222290 38.534405,30.356836 
z"/>
<path fill="#ECEDED" opacity="1.000000" stroke="none" 
	d="
M25.162392,14.982447 
	C25.146002,15.024120 25.119228,14.858850 25.119228,14.858850 
	C25.119228,14.858850 25.073324,15.054024 25.155590,14.963741 
	C25.237856,14.873458 25.178780,14.940773 25.162392,14.982447 
z"/>
<path fill="#1A1B1C" opacity="1.000000" stroke="none" 
	d="
M55.345680,41.188271 
	C54.726082,40.228359 54.469173,39.427002 54.540581,38.246185 
	C55.388004,37.426113 55.907116,36.985497 56.426224,36.544880 
	C56.426224,36.544880 56.689510,36.371723 56.839752,36.418907 
	C57.693897,36.657154 58.397800,36.848221 59.483143,37.029816 
	C59.549671,39.841583 59.234760,42.662819 58.824600,45.885098 
	C58.462185,46.615913 58.195026,46.945686 57.880516,47.488670 
	C57.124897,45.583523 56.416634,43.465172 55.345680,41.188271 
z"/>
<path fill="#BFC0C0" opacity="1.000000" stroke="none" 
	d="
M62.986839,49.991077 
	C62.831707,50.876545 62.676571,51.762009 62.521439,52.647472 
	C62.143147,52.508945 61.764854,52.370415 61.386562,52.231884 
	C61.698704,51.531567 62.010849,50.831249 62.661392,50.065567 
	C62.999798,50.000198 62.986839,49.991077 62.986839,49.991077 
z"/>
<path fill="#BFC0C0" opacity="1.000000" stroke="none" 
	d="
M63.004097,50.006786 
	C63.008392,50.013374 63.260151,49.589680 63.260151,49.589680 
	C63.260151,49.589680 63.223061,49.885426 63.104950,49.938251 
	C62.986839,49.991077 62.999798,50.000198 63.004097,50.006786 
z"/>
<path fill="#040404" opacity="1.000000" stroke="none" 
	d="
M36.670650,45.256866 
	C36.661350,45.571419 36.433685,45.643604 36.206017,45.715790 
	C36.288105,45.482025 36.370197,45.248260 36.670650,45.256866 
z"/>
<path fill="#040404" opacity="1.000000" stroke="none" 
	d="
M43.936020,45.270485 
	C44.237995,45.075253 44.558823,45.180271 44.930054,45.616463 
	C44.638596,45.821999 44.296734,45.696369 43.936020,45.270485 
z"/>
<path fill="#A2A4A9" opacity="1.000000" stroke="none" 
	d="
M53.339882,45.935432 
	C53.019028,45.028748 53.014301,43.943443 53.024239,42.453789 
	C53.520565,41.783611 54.002232,41.517773 54.745384,41.166092 
	C54.556583,42.639107 54.106297,44.197956 53.339882,45.935432 
z"/>
<path fill="#040404" opacity="1.000000" stroke="none" 
	d="
M56.054642,36.335876 
	C55.907116,36.985497 55.388004,37.426113 54.527485,37.917789 
	C54.685066,37.354855 55.184059,36.740860 56.054642,36.335876 
z"/>
</svg>